<?xml version="1.0" standalone="no"?>
<!DOCTYPE svg PUBLIC "-//W3C//DTD SVG 20010904//EN"
 "http://www.w3.org/TR/2001/REC-SVG-20010904/DTD/svg10.dtd">
<svg version="1.0" xmlns="http://www.w3.org/2000/svg"
 width="500.000000pt" height="500.000000pt" viewBox="0 0 500.000000 500.000000"
 preserveAspectRatio="xMidYMid meet">

<g transform="translate(0.000000,500.000000) scale(0.100000,-0.100000)"
fill="#000000" stroke="none">
<path d="M2335 4990 c-315 -18 -658 -111 -955 -260 -1446 -725 -1827 -2616
-776 -3855 131 -154 279 -287 486 -436 84 -61 272 -165 400 -222 584 -260
1281 -280 1885 -54 673 252 1212 791 1462 1462 214 576 206 1248 -24 1810
-268 656 -782 1157 -1443 1404 -323 121 -668 171 -1035 151z m635 -719 c176
-31 208 -38 305 -66 127 -36 316 -107 321 -120 2 -5 -18 -64 -45 -130 -27 -66
-79 -192 -115 -279 -36 -87 -68 -161 -70 -163 -2 -3 -40 11 -84 31 -68 31
-133 54 -267 96 -126 39 -400 63 -550 48 -256 -24 -438 -107 -608 -275 -243
-241 -353 -602 -319 -1051 27 -346 112 -585 271 -754 185 -198 407 -266 782
-239 138 9 244 23 297 37 9 3 12 84 12 364 l0 360 -325 0 -325 0 0 305 0 305
680 0 680 0 -2 -897 -3 -897 -150 -43 c-242 -69 -341 -88 -705 -133 -131 -16
-547 -13 -671 5 -358 53 -620 176 -839 395 -236 237 -374 548 -436 985 -24
170 -24 557 0 715 50 329 155 594 319 808 254 331 659 547 1127 601 52 6 109
13 125 15 17 3 131 3 255 1 167 -3 255 -9 340 -24z"/>
</g>
</svg>
